<mxfile host="app.diagrams.net" modified="2022-11-14T18:14:50.972Z" agent="5.0 (Macintosh; Intel Mac OS X 10_15_7) AppleWebKit/537.36 (KHTML, like Gecko) Chrome/107.0.0.0 Safari/537.36" etag="tPufXITItCKu7qmBMH90" version="20.5.3" type="github">
  <diagram id="Cb6qqhRIO-Zgy5uvOArv" name="Page-1">
    <mxGraphModel dx="1044" dy="769" grid="1" gridSize="10" guides="1" tooltips="1" connect="1" arrows="1" fold="1" page="1" pageScale="1" pageWidth="850" pageHeight="1100" math="0" shadow="0">
      <root>
        <mxCell id="0" />
        <mxCell id="1" parent="0" />
        <mxCell id="Uf7y7Zttw9c29H2NcjAr-23" value="Casino" style="swimlane;fontStyle=1;align=center;verticalAlign=top;childLayout=stackLayout;horizontal=1;startSize=26;horizontalStack=0;resizeParent=1;resizeParentMax=0;resizeLast=0;collapsible=1;marginBottom=0;" parent="1" vertex="1">
          <mxGeometry x="80" y="130" width="160" height="158" as="geometry" />
        </mxCell>
        <mxCell id="Uf7y7Zttw9c29H2NcjAr-24" value="+ player&#xa;+ cards&#xa;+ chips" style="text;strokeColor=none;fillColor=none;align=left;verticalAlign=top;spacingLeft=4;spacingRight=4;overflow=hidden;rotatable=0;points=[[0,0.5],[1,0.5]];portConstraint=eastwest;" parent="Uf7y7Zttw9c29H2NcjAr-23" vertex="1">
          <mxGeometry y="26" width="160" height="54" as="geometry" />
        </mxCell>
        <mxCell id="Uf7y7Zttw9c29H2NcjAr-25" value="" style="line;strokeWidth=1;fillColor=none;align=left;verticalAlign=middle;spacingTop=-1;spacingLeft=3;spacingRight=3;rotatable=0;labelPosition=right;points=[];portConstraint=eastwest;strokeColor=inherit;" parent="Uf7y7Zttw9c29H2NcjAr-23" vertex="1">
          <mxGeometry y="80" width="160" height="8" as="geometry" />
        </mxCell>
        <mxCell id="Uf7y7Zttw9c29H2NcjAr-26" value="+ void player()&#xa;+ void cards()&#xa;+ void chips()" style="text;strokeColor=none;fillColor=none;align=left;verticalAlign=top;spacingLeft=4;spacingRight=4;overflow=hidden;rotatable=0;points=[[0,0.5],[1,0.5]];portConstraint=eastwest;" parent="Uf7y7Zttw9c29H2NcjAr-23" vertex="1">
          <mxGeometry y="88" width="160" height="70" as="geometry" />
        </mxCell>
      </root>
    </mxGraphModel>
  </diagram>
</mxfile>
